# xmcd
# 
# Track frame offsets:
#     150
#     9900
#     22429
#     32123
#     42084
#     52458
#     63852
#     73863
#     92319
#     103955
#     114091
#     123963
#     135653
#     147310
#     161189
# 
# Disc length: 2254
# 
# Revision: 1
# Processed by: cddbd v1.5.2PL0 Copyright (c) Steve Scherf et al.
# Submitted via: fre:ac v1.1beta1pre4
# 
DISCID=d508cc0f
DTITLE=The Chuck Wagon Gang - 30 Country Gospel Favorites [CD2]
DYEAR=0
DGENRE=Country Gospel
TTITLE0=The Church In The Wildwood
TTITLE1=The Joy Of Heaven
TTITLE2=The Whole World In His Hands
TTITLE3=There is Sunshine In My Soul
TTITLE4=When The Roll Is Called Up Yonder
TTITLE5=I'lll Live On
TTITLE6=Whispering Hope
TTITLE7=Wayfaring Stranger
TTITLE8=Will There Be Any Stars In My Crown
TTITLE9=I Know That My Redeemer Lives
TTITLE10=The Great Speckled Bird
TTITLE11=A Beautiful Life
TTITLE12=Song Me A Going Home Song
TTITLE13=Master, The Tempest Is Raging
TTITLE14=Now The Day Is Over
EXTD=
EXTT0=
EXTT1=
EXTT2=
EXTT3=
EXTT4=
EXTT5=
EXTT6=
EXTT7=
EXTT8=
EXTT9=
EXTT10=
EXTT11=
EXTT12=
EXTT13=
EXTT14=
PLAYORDER=
